<mxfile host="app.diagrams.net" agent="Mozilla/5.0 (Windows NT 10.0; Win64; x64) AppleWebKit/537.36 (KHTML, like Gecko) Chrome/133.0.0.0 Safari/537.36 Edg/133.0.0.0" version="26.1.0">
  <diagram name="Page-1" id="xAL0JIr_OXun3gcS27lu">
    <mxGraphModel dx="1298" dy="1492" grid="1" gridSize="10" guides="1" tooltips="1" connect="1" arrows="1" fold="1" page="1" pageScale="1" pageWidth="1600" pageHeight="900" background="none" math="0" shadow="0">
      <root>
        <mxCell id="0" />
        <mxCell id="1" parent="0" />
        <mxCell id="qqwQtKAnkv9uPPtnW7fQ-9" value="&lt;div&gt;&lt;span style=&quot;background-color: initial;&quot;&gt;Cloud&lt;/span&gt;&lt;/div&gt;" style="points=[[0,0],[0.25,0],[0.5,0],[0.75,0],[1,0],[1,0.25],[1,0.5],[1,0.75],[1,1],[0.75,1],[0.5,1],[0.25,1],[0,1],[0,0.75],[0,0.5],[0,0.25]];outlineConnect=0;gradientColor=none;html=1;whiteSpace=wrap;fontSize=15;fontStyle=1;container=1;pointerEvents=0;collapsible=0;recursiveResize=0;shape=mxgraph.aws4.group;grIcon=mxgraph.aws4.group_aws_cloud;strokeColor=#232F3E;fillColor=none;verticalAlign=top;align=left;spacingLeft=30;fontColor=#232F3E;dashed=0;rounded=0;fontFamily=Verdana;" parent="1" vertex="1">
          <mxGeometry x="180" y="10" width="1120" height="1150" as="geometry" />
        </mxCell>
        <mxCell id="qqwQtKAnkv9uPPtnW7fQ-18" value="Account" style="points=[[0,0],[0.25,0],[0.5,0],[0.75,0],[1,0],[1,0.25],[1,0.5],[1,0.75],[1,1],[0.75,1],[0.5,1],[0.25,1],[0,1],[0,0.75],[0,0.5],[0,0.25]];outlineConnect=0;gradientColor=none;html=1;whiteSpace=wrap;fontSize=15;fontStyle=1;container=1;pointerEvents=0;collapsible=0;recursiveResize=0;shape=mxgraph.aws4.group;grIcon=mxgraph.aws4.group_account;strokeColor=#CD2264;fillColor=none;verticalAlign=top;align=left;spacingLeft=30;fontColor=#CD2264;dashed=0;fontFamily=Verdana;" parent="qqwQtKAnkv9uPPtnW7fQ-9" vertex="1">
          <mxGeometry x="20" y="40" width="1080" height="830" as="geometry" />
        </mxCell>
        <mxCell id="qqwQtKAnkv9uPPtnW7fQ-5" value="Cape Town (af-south-1)" style="points=[[0,0],[0.25,0],[0.5,0],[0.75,0],[1,0],[1,0.25],[1,0.5],[1,0.75],[1,1],[0.75,1],[0.5,1],[0.25,1],[0,1],[0,0.75],[0,0.5],[0,0.25]];outlineConnect=0;gradientColor=none;html=1;whiteSpace=wrap;fontSize=15;fontStyle=1;container=1;pointerEvents=0;collapsible=0;recursiveResize=0;shape=mxgraph.aws4.group;grIcon=mxgraph.aws4.group_region;strokeColor=#00A4A6;fillColor=none;verticalAlign=top;align=left;spacingLeft=30;fontColor=#147EBA;dashed=1;rounded=0;fontFamily=Verdana;" parent="qqwQtKAnkv9uPPtnW7fQ-18" vertex="1">
          <mxGeometry x="20" y="40" width="1020" height="570" as="geometry" />
        </mxCell>
        <mxCell id="qqwQtKAnkv9uPPtnW7fQ-10" value="VPC - 10.0.0.0/16" style="points=[[0,0],[0.25,0],[0.5,0],[0.75,0],[1,0],[1,0.25],[1,0.5],[1,0.75],[1,1],[0.75,1],[0.5,1],[0.25,1],[0,1],[0,0.75],[0,0.5],[0,0.25]];outlineConnect=0;gradientColor=none;html=1;whiteSpace=wrap;fontSize=16;fontStyle=1;container=1;pointerEvents=0;collapsible=0;recursiveResize=0;shape=mxgraph.aws4.group;grIcon=mxgraph.aws4.group_vpc2;strokeColor=#8C4FFF;fillColor=none;verticalAlign=top;align=left;spacingLeft=30;fontColor=#8C4FFF;dashed=0;hachureGap=4;fontFamily=Verdana;horizontal=1;" parent="qqwQtKAnkv9uPPtnW7fQ-5" vertex="1">
          <mxGeometry x="100" y="80" width="890" height="440" as="geometry" />
        </mxCell>
        <mxCell id="qqwQtKAnkv9uPPtnW7fQ-27" value="Internet&lt;div&gt;Gateway&lt;/div&gt;" style="sketch=0;outlineConnect=0;fontColor=#232F3E;gradientColor=none;fillColor=#8C4FFF;strokeColor=none;dashed=0;verticalLabelPosition=bottom;verticalAlign=top;align=center;html=1;fontSize=15;fontStyle=1;aspect=fixed;pointerEvents=1;shape=mxgraph.aws4.internet_gateway;fontFamily=Verdana;" parent="qqwQtKAnkv9uPPtnW7fQ-10" vertex="1">
          <mxGeometry x="-40" y="260" width="78" height="78" as="geometry" />
        </mxCell>
        <mxCell id="qqwQtKAnkv9uPPtnW7fQ-34" value="Public&lt;div style=&quot;font-size: 15px;&quot;&gt;NACL&lt;/div&gt;" style="sketch=0;outlineConnect=0;fontColor=#232F3E;gradientColor=none;fillColor=#8C4FFF;strokeColor=none;dashed=0;verticalLabelPosition=bottom;verticalAlign=top;align=center;html=1;fontSize=15;fontStyle=1;aspect=fixed;pointerEvents=1;shape=mxgraph.aws4.network_access_control_list;fontFamily=Verdana;" parent="qqwQtKAnkv9uPPtnW7fQ-10" vertex="1">
          <mxGeometry x="90" y="60" width="78" height="78" as="geometry" />
        </mxCell>
        <mxCell id="qqwQtKAnkv9uPPtnW7fQ-37" value="" style="fillColor=none;strokeColor=#5A6C86;dashed=1;verticalAlign=top;fontStyle=1;fontColor=#5A6C86;whiteSpace=wrap;html=1;fontFamily=Verdana;fontSize=15;" parent="qqwQtKAnkv9uPPtnW7fQ-10" vertex="1">
          <mxGeometry x="130" y="40" width="740" height="160" as="geometry" />
        </mxCell>
        <mxCell id="qqwQtKAnkv9uPPtnW7fQ-36" value="Private&lt;div style=&quot;font-size: 15px;&quot;&gt;NACL&lt;/div&gt;" style="sketch=0;outlineConnect=0;fontColor=#232F3E;gradientColor=none;fillColor=#8C4FFF;strokeColor=none;dashed=0;verticalLabelPosition=bottom;verticalAlign=top;align=center;html=1;fontSize=15;fontStyle=1;aspect=fixed;pointerEvents=1;shape=mxgraph.aws4.network_access_control_list;fontFamily=Verdana;" parent="qqwQtKAnkv9uPPtnW7fQ-10" vertex="1">
          <mxGeometry x="90" y="280" width="78" height="78" as="geometry" />
        </mxCell>
        <mxCell id="qqwQtKAnkv9uPPtnW7fQ-38" value="" style="fillColor=none;strokeColor=#5A6C86;dashed=1;verticalAlign=top;fontStyle=1;fontColor=#5A6C86;whiteSpace=wrap;html=1;fontFamily=Verdana;fontSize=15;" parent="qqwQtKAnkv9uPPtnW7fQ-10" vertex="1">
          <mxGeometry x="130" y="250" width="740" height="170" as="geometry" />
        </mxCell>
        <mxCell id="qqwQtKAnkv9uPPtnW7fQ-6" value="af-south-1b" style="fillColor=none;strokeColor=#147EBA;dashed=1;verticalAlign=top;fontStyle=1;fontColor=#147EBA;whiteSpace=wrap;html=1;rounded=0;fontFamily=Verdana;fontSize=15;" parent="qqwQtKAnkv9uPPtnW7fQ-5" vertex="1">
          <mxGeometry x="530" y="40" width="200" height="510" as="geometry" />
        </mxCell>
        <mxCell id="qqwQtKAnkv9uPPtnW7fQ-7" value="af-south-1c" style="fillColor=none;strokeColor=#147EBA;dashed=1;verticalAlign=top;fontStyle=1;fontColor=#147EBA;whiteSpace=wrap;html=1;rounded=0;fontFamily=Verdana;fontSize=15;" parent="qqwQtKAnkv9uPPtnW7fQ-5" vertex="1">
          <mxGeometry x="750" y="40" width="200" height="510" as="geometry" />
        </mxCell>
        <mxCell id="qqwQtKAnkv9uPPtnW7fQ-8" value="af-south-1a" style="fillColor=none;strokeColor=#147EBA;dashed=1;verticalAlign=top;fontStyle=1;fontColor=#147EBA;whiteSpace=wrap;html=1;rounded=0;fontFamily=Verdana;fontSize=15;" parent="qqwQtKAnkv9uPPtnW7fQ-5" vertex="1">
          <mxGeometry x="310" y="40" width="200" height="510" as="geometry" />
        </mxCell>
        <mxCell id="qqwQtKAnkv9uPPtnW7fQ-13" value="Public subnet - 10.0.0.0/24" style="points=[[0,0],[0.25,0],[0.5,0],[0.75,0],[1,0],[1,0.25],[1,0.5],[1,0.75],[1,1],[0.75,1],[0.5,1],[0.25,1],[0,1],[0,0.75],[0,0.5],[0,0.25]];outlineConnect=0;gradientColor=none;html=1;whiteSpace=wrap;fontSize=15;fontStyle=1;container=1;pointerEvents=0;collapsible=0;recursiveResize=0;shape=mxgraph.aws4.group;grIcon=mxgraph.aws4.group_security_group;grStroke=0;strokeColor=#7AA116;fillColor=#F2F6E8;verticalAlign=top;align=left;spacingLeft=30;fontColor=#248814;dashed=0;hachureGap=4;fontFamily=Verdana;" parent="qqwQtKAnkv9uPPtnW7fQ-5" vertex="1">
          <mxGeometry x="320" y="130" width="180" height="140" as="geometry" />
        </mxCell>
        <mxCell id="qqwQtKAnkv9uPPtnW7fQ-21" value="" style="sketch=0;outlineConnect=0;fontColor=#232F3E;gradientColor=none;fillColor=#ED7100;strokeColor=none;dashed=0;verticalLabelPosition=bottom;verticalAlign=top;align=center;html=1;fontSize=12;fontStyle=0;aspect=fixed;pointerEvents=1;shape=mxgraph.aws4.t3_instance;" parent="qqwQtKAnkv9uPPtnW7fQ-13" vertex="1">
          <mxGeometry x="66" y="61" width="48" height="48" as="geometry" />
        </mxCell>
        <mxCell id="qqwQtKAnkv9uPPtnW7fQ-17" value="Public subnet - 10.0.2.0/24" style="points=[[0,0],[0.25,0],[0.5,0],[0.75,0],[1,0],[1,0.25],[1,0.5],[1,0.75],[1,1],[0.75,1],[0.5,1],[0.25,1],[0,1],[0,0.75],[0,0.5],[0,0.25]];outlineConnect=0;gradientColor=none;html=1;whiteSpace=wrap;fontSize=15;fontStyle=1;container=1;pointerEvents=0;collapsible=0;recursiveResize=0;shape=mxgraph.aws4.group;grIcon=mxgraph.aws4.group_security_group;grStroke=0;strokeColor=#7AA116;fillColor=#F2F6E8;verticalAlign=top;align=left;spacingLeft=30;fontColor=#248814;dashed=0;hachureGap=4;fontFamily=Verdana;" parent="qqwQtKAnkv9uPPtnW7fQ-5" vertex="1">
          <mxGeometry x="760" y="130" width="180" height="140" as="geometry" />
        </mxCell>
        <mxCell id="qqwQtKAnkv9uPPtnW7fQ-16" value="Public subnet - 10.0.1.0/24" style="points=[[0,0],[0.25,0],[0.5,0],[0.75,0],[1,0],[1,0.25],[1,0.5],[1,0.75],[1,1],[0.75,1],[0.5,1],[0.25,1],[0,1],[0,0.75],[0,0.5],[0,0.25]];outlineConnect=0;gradientColor=none;html=1;whiteSpace=wrap;fontSize=15;fontStyle=1;container=1;pointerEvents=0;collapsible=0;recursiveResize=0;shape=mxgraph.aws4.group;grIcon=mxgraph.aws4.group_security_group;grStroke=0;strokeColor=#7AA116;fillColor=#F2F6E8;verticalAlign=top;align=left;spacingLeft=30;fontColor=#248814;dashed=0;hachureGap=4;fontFamily=Verdana;" parent="qqwQtKAnkv9uPPtnW7fQ-5" vertex="1">
          <mxGeometry x="540" y="130" width="180" height="140" as="geometry" />
        </mxCell>
        <mxCell id="qqwQtKAnkv9uPPtnW7fQ-22" value="" style="sketch=0;outlineConnect=0;fontColor=#232F3E;gradientColor=none;fillColor=#ED7100;strokeColor=none;dashed=0;verticalLabelPosition=bottom;verticalAlign=top;align=center;html=1;fontSize=12;fontStyle=0;aspect=fixed;pointerEvents=1;shape=mxgraph.aws4.t3_instance;" parent="qqwQtKAnkv9uPPtnW7fQ-16" vertex="1">
          <mxGeometry x="66" y="61" width="48" height="48" as="geometry" />
        </mxCell>
        <mxCell id="qqwQtKAnkv9uPPtnW7fQ-23" value="Private subnet - 10.0.128.0/24" style="points=[[0,0],[0.25,0],[0.5,0],[0.75,0],[1,0],[1,0.25],[1,0.5],[1,0.75],[1,1],[0.75,1],[0.5,1],[0.25,1],[0,1],[0,0.75],[0,0.5],[0,0.25]];outlineConnect=0;gradientColor=none;html=1;whiteSpace=wrap;fontSize=15;fontStyle=1;container=1;pointerEvents=0;collapsible=0;recursiveResize=0;shape=mxgraph.aws4.group;grIcon=mxgraph.aws4.group_security_group;grStroke=0;strokeColor=#00A4A6;fillColor=#E6F6F7;verticalAlign=top;align=left;spacingLeft=30;fontColor=#147EBA;dashed=0;fontFamily=Verdana;" parent="qqwQtKAnkv9uPPtnW7fQ-5" vertex="1">
          <mxGeometry x="320" y="340" width="180" height="150" as="geometry" />
        </mxCell>
        <mxCell id="qqwQtKAnkv9uPPtnW7fQ-25" value="" style="sketch=0;outlineConnect=0;fontColor=#232F3E;gradientColor=none;fillColor=#C925D1;strokeColor=none;dashed=0;verticalLabelPosition=bottom;verticalAlign=top;align=center;html=1;fontSize=12;fontStyle=0;aspect=fixed;pointerEvents=1;shape=mxgraph.aws4.rds_mysql_instance;" parent="qqwQtKAnkv9uPPtnW7fQ-23" vertex="1">
          <mxGeometry x="51" y="60" width="78" height="78" as="geometry" />
        </mxCell>
        <mxCell id="qqwQtKAnkv9uPPtnW7fQ-24" value="Private subnet - 10.0.129.0/24" style="points=[[0,0],[0.25,0],[0.5,0],[0.75,0],[1,0],[1,0.25],[1,0.5],[1,0.75],[1,1],[0.75,1],[0.5,1],[0.25,1],[0,1],[0,0.75],[0,0.5],[0,0.25]];outlineConnect=0;gradientColor=none;html=1;whiteSpace=wrap;fontSize=15;fontStyle=1;container=1;pointerEvents=0;collapsible=0;recursiveResize=0;shape=mxgraph.aws4.group;grIcon=mxgraph.aws4.group_security_group;grStroke=0;strokeColor=#00A4A6;fillColor=#E6F6F7;verticalAlign=top;align=left;spacingLeft=30;fontColor=#147EBA;dashed=0;fontFamily=Verdana;" parent="qqwQtKAnkv9uPPtnW7fQ-5" vertex="1">
          <mxGeometry x="540" y="340" width="180" height="150" as="geometry" />
        </mxCell>
        <mxCell id="qqwQtKAnkv9uPPtnW7fQ-26" value="" style="sketch=0;outlineConnect=0;fontColor=#232F3E;gradientColor=none;fillColor=#C925D1;strokeColor=none;dashed=0;verticalLabelPosition=bottom;verticalAlign=top;align=center;html=1;fontSize=12;fontStyle=0;aspect=fixed;pointerEvents=1;shape=mxgraph.aws4.rds_mysql_instance;" parent="qqwQtKAnkv9uPPtnW7fQ-24" vertex="1">
          <mxGeometry x="50" y="60" width="78" height="78" as="geometry" />
        </mxCell>
        <mxCell id="qqwQtKAnkv9uPPtnW7fQ-28" value="Route&lt;div style=&quot;font-size: 15px;&quot;&gt;Table&lt;/div&gt;" style="sketch=0;outlineConnect=0;fontColor=#232F3E;gradientColor=none;fillColor=#8C4FFF;strokeColor=none;dashed=0;verticalLabelPosition=bottom;verticalAlign=top;align=center;html=1;fontSize=15;fontStyle=1;aspect=fixed;pointerEvents=1;shape=mxgraph.aws4.route_table;fontFamily=Verdana;" parent="qqwQtKAnkv9uPPtnW7fQ-5" vertex="1">
          <mxGeometry x="60" y="130" width="78" height="76" as="geometry" />
        </mxCell>
        <mxCell id="qqwQtKAnkv9uPPtnW7fQ-41" value="" style="edgeStyle=orthogonalEdgeStyle;html=1;endArrow=block;elbow=vertical;startArrow=none;endFill=1;strokeColor=#545B64;rounded=0;strokeWidth=3;fontFamily=Verdana;fontStyle=1;fontSize=15;" parent="qqwQtKAnkv9uPPtnW7fQ-5" source="qqwQtKAnkv9uPPtnW7fQ-28" target="qqwQtKAnkv9uPPtnW7fQ-27" edge="1">
          <mxGeometry width="100" relative="1" as="geometry">
            <mxPoint x="-100" y="210" as="sourcePoint" />
            <mxPoint y="210" as="targetPoint" />
            <Array as="points">
              <mxPoint x="130" y="280" />
              <mxPoint x="130" y="280" />
            </Array>
          </mxGeometry>
        </mxCell>
        <mxCell id="qqwQtKAnkv9uPPtnW7fQ-42" value="0.0.0.0/0" style="edgeLabel;html=1;align=center;verticalAlign=middle;resizable=0;points=[];fontStyle=1;fontFamily=Verdana;fontSize=15;horizontal=0;" parent="qqwQtKAnkv9uPPtnW7fQ-41" vertex="1" connectable="0">
          <mxGeometry x="0.2711" y="1" relative="1" as="geometry">
            <mxPoint x="10" y="-20" as="offset" />
          </mxGeometry>
        </mxCell>
        <mxCell id="qqwQtKAnkv9uPPtnW7fQ-44" value="" style="edgeStyle=orthogonalEdgeStyle;html=1;endArrow=block;elbow=vertical;startArrow=none;endFill=1;strokeColor=#545B64;rounded=0;strokeWidth=3;fontFamily=Verdana;fontSize=15;horizontal=0;" parent="qqwQtKAnkv9uPPtnW7fQ-5" source="qqwQtKAnkv9uPPtnW7fQ-28" target="qqwQtKAnkv9uPPtnW7fQ-10" edge="1">
          <mxGeometry width="100" relative="1" as="geometry">
            <mxPoint x="150" y="140" as="sourcePoint" />
            <mxPoint x="250" y="140" as="targetPoint" />
            <Array as="points">
              <mxPoint x="40" y="168" />
              <mxPoint x="40" y="300" />
            </Array>
          </mxGeometry>
        </mxCell>
        <mxCell id="qqwQtKAnkv9uPPtnW7fQ-45" value="10.0.0.0/16" style="edgeLabel;html=1;align=center;verticalAlign=middle;resizable=0;points=[];horizontal=0;fontSize=15;fontStyle=1;fontFamily=Verdana;" parent="qqwQtKAnkv9uPPtnW7fQ-44" vertex="1" connectable="0">
          <mxGeometry x="-0.0027" relative="1" as="geometry">
            <mxPoint x="-13" y="-17" as="offset" />
          </mxGeometry>
        </mxCell>
        <mxCell id="qqwQtKAnkv9uPPtnW7fQ-32" value="" style="group;fontStyle=1;fontFamily=Verdana;fontSize=15;" parent="1" vertex="1" connectable="0">
          <mxGeometry x="38" y="454" width="78.75" height="69" as="geometry" />
        </mxCell>
        <mxCell id="qqwQtKAnkv9uPPtnW7fQ-30" value="Public&lt;div style=&quot;font-size: 15px;&quot;&gt;Internet&lt;/div&gt;" style="sketch=0;outlineConnect=0;gradientColor=none;fontColor=#232F3E;strokeColor=none;fillColor=#232F3E;dashed=0;verticalLabelPosition=bottom;verticalAlign=top;align=center;html=1;fontSize=15;fontStyle=1;aspect=fixed;shape=mxgraph.aws4.illustration_devices;pointerEvents=1;fontFamily=Verdana;" parent="qqwQtKAnkv9uPPtnW7fQ-32" vertex="1">
          <mxGeometry x="25" y="33" width="49.32" height="36" as="geometry" />
        </mxCell>
        <mxCell id="qqwQtKAnkv9uPPtnW7fQ-29" value="" style="sketch=0;outlineConnect=0;fontColor=#232F3E;gradientColor=none;fillColor=#232F3D;strokeColor=none;dashed=0;verticalLabelPosition=bottom;verticalAlign=top;align=center;html=1;fontSize=15;fontStyle=1;aspect=fixed;pointerEvents=1;shape=mxgraph.aws4.internet;fontFamily=Verdana;" parent="qqwQtKAnkv9uPPtnW7fQ-32" vertex="1">
          <mxGeometry x="30" width="48.75" height="30" as="geometry" />
        </mxCell>
        <mxCell id="qqwQtKAnkv9uPPtnW7fQ-31" value="" style="sketch=0;outlineConnect=0;fontColor=#232F3E;gradientColor=none;fillColor=#232F3D;strokeColor=none;dashed=0;verticalLabelPosition=bottom;verticalAlign=top;align=center;html=1;fontSize=15;fontStyle=1;aspect=fixed;pointerEvents=1;shape=mxgraph.aws4.users;fontFamily=Verdana;" parent="qqwQtKAnkv9uPPtnW7fQ-32" vertex="1">
          <mxGeometry y="24" width="34" height="34" as="geometry" />
        </mxCell>
        <mxCell id="qqwQtKAnkv9uPPtnW7fQ-33" value="" style="edgeStyle=orthogonalEdgeStyle;html=1;endArrow=block;elbow=vertical;startArrow=block;startFill=1;endFill=1;strokeColor=#545B64;rounded=0;strokeWidth=3;" parent="1" source="qqwQtKAnkv9uPPtnW7fQ-29" target="qqwQtKAnkv9uPPtnW7fQ-27" edge="1">
          <mxGeometry width="100" relative="1" as="geometry">
            <mxPoint x="50" y="330" as="sourcePoint" />
            <mxPoint x="150" y="330" as="targetPoint" />
          </mxGeometry>
        </mxCell>
      </root>
    </mxGraphModel>
  </diagram>
</mxfile>
